<?xml version="1.0" encoding="utf-8"?>
<!-- Generator: Adobe Illustrator 22.0.1, SVG Export Plug-In . SVG Version: 6.00 Build 0)  -->
<svg version="1.1" id="Livello_1" xmlns="http://www.w3.org/2000/svg" xmlns:xlink="http://www.w3.org/1999/xlink" x="0px" y="0px"
	 viewBox="0 0 566.9 566.9" style="enable-background:new 0 0 566.9 566.9;" xml:space="preserve">
<style type="text/css">
	.st0{fill:#F8A914;stroke:#F8A914;stroke-width:2.3107;stroke-miterlimit:10;}
	.st1{fill:#F0EDE0;}
	.st2{fill:#D5C3A5;}
	.st3{fill:#F9EF81;}
	.st4{fill:#D43646;}
</style>
<g>
	<path class="st0" d="M533.7,9.2H33.2C17.4,9.2,4.4,22.1,4.4,38c0,15.9,13,28.9,28.8,28.9V38h500.5v28.9c15.9,0,28.8-13,28.8-28.9
		C562.5,22.1,549.6,9.2,533.7,9.2L533.7,9.2z M533.7,9.2"/>
	<path class="st1" d="M52.5,500l57.8,57.8L168,500l57.7,57.8l57.8-57.8l57.8,57.8L399,500l57.8,57.8l57.7-57.8l19.3,19.2V38H33.2
		v481.2L52.5,500z M52.5,500"/>
	<path class="st2" d="M418.2,403.8H273.8c-5.3,0-9.6-4.3-9.6-9.6c0-5.3,4.3-9.6,9.6-9.6h144.4c5.3,0,9.6,4.3,9.6,9.6
		C427.8,399.4,423.5,403.8,418.2,403.8L418.2,403.8z M418.2,403.8"/>
	<path class="st2" d="M466.3,403.8c-2.5,0-5-1.1-6.8-2.8c-1.7-1.8-2.8-4.3-2.8-6.8c0-2.6,1-5,2.8-6.8c3.7-3.6,10-3.6,13.7,0
		c1.7,1.8,2.8,4.2,2.8,6.8c0,2.5-1,5-2.8,6.8C471.3,402.7,468.8,403.8,466.3,403.8L466.3,403.8z M466.3,403.8"/>
	<path class="st2" d="M466.3,269H321.9c-5.3,0-9.6-4.3-9.6-9.6c0-5.3,4.3-9.6,9.6-9.6h144.4c5.3,0,9.6,4.3,9.6,9.6
		C475.9,264.7,471.6,269,466.3,269L466.3,269z M466.3,269"/>
	<path class="st2" d="M466.3,336.4h-96.2c-5.3,0-9.6-4.3-9.6-9.6c0-5.3,4.3-9.6,9.6-9.6h96.2c5.3,0,9.6,4.3,9.6,9.6
		C475.9,332.1,471.6,336.4,466.3,336.4L466.3,336.4z M466.3,336.4"/>
	<path class="st2" d="M293.1,336.4h-19.3c-5.3,0-9.6-4.3-9.6-9.6c0-5.3,4.3-9.6,9.6-9.6h19.3c5.3,0,9.6,4.3,9.6,9.6
		C302.7,332.1,298.4,336.4,293.1,336.4L293.1,336.4z M293.1,336.4"/>
	<path class="st2" d="M418.2,201.6H273.8c-5.3,0-9.6-4.3-9.6-9.6c0-5.3,4.3-9.6,9.6-9.6h144.4c5.3,0,9.6,4.3,9.6,9.6
		C427.8,197.3,423.5,201.6,418.2,201.6L418.2,201.6z M418.2,201.6"/>
	<path class="st2" d="M466.3,201.6c-2.5,0-5-1.1-6.8-2.8c-1.7-1.8-2.8-4.4-2.8-6.9c0-2.6,1-5,2.8-6.8c3.6-3.6,10.1-3.6,13.7,0
		c1.7,1.8,2.8,4.3,2.8,6.8c0,2.5-1,5-2.8,6.9C471.3,200.6,468.9,201.6,466.3,201.6L466.3,201.6z M466.3,201.6"/>
	<path class="st2" d="M283.5,269c-2.5,0-5-1.1-6.8-2.8c-1.7-1.8-2.8-4.2-2.8-6.8c0-2.6,1.1-5,2.8-6.9c3.7-3.5,10.1-3.5,13.7,0
		c1.7,1.8,2.8,4.2,2.8,6.9c0,2.6-1.1,5-2.8,6.8C288.5,268,286,269,283.5,269L283.5,269z M283.5,269"/>
	<path class="st2" d="M331.6,336.4c-2.5,0-5-1-6.8-2.8c-1.7-1.8-2.8-4.3-2.8-6.9c0-2.5,1.1-5,2.8-6.8c3.7-3.6,10.1-3.6,13.7,0
		c1.7,1.7,2.8,4.2,2.8,6.8c0,2.6-1.1,5-2.8,6.9C336.6,335.3,334.1,336.4,331.6,336.4L331.6,336.4z M331.6,336.4"/>
	<path class="st3" d="M62.1,115c-2.5,0-5-1.1-6.9-2.8c-1.7-1.8-2.8-4.3-2.8-6.8c0-2.5,1.1-5,2.8-6.8c3.7-3.6,10.1-3.6,13.7,0
		c1.7,1.8,2.8,4.3,2.8,6.8c0,2.5-1.1,5-2.8,6.8C67.1,114,64.6,115,62.1,115L62.1,115z M62.1,115"/>
	<path class="st3" d="M458.3,105.4c0-5.3,4.3-9.6,9.6-9.6c5.3,0,9.6,4.3,9.6,9.6c0,5.3-4.3,9.6-9.6,9.6
		C462.6,115,458.3,110.7,458.3,105.4L458.3,105.4z M421.4,105.4c0-5.3,4.3-9.6,9.6-9.6c5.4,0,9.6,4.3,9.6,9.6c0,5.3-4.3,9.6-9.6,9.6
		C425.7,115,421.4,110.7,421.4,105.4L421.4,105.4z M384.6,105.4c0-5.3,4.3-9.6,9.6-9.6c5.3,0,9.6,4.3,9.6,9.6c0,5.3-4.3,9.6-9.6,9.6
		C388.9,115,384.6,110.7,384.6,105.4L384.6,105.4z M347.7,105.4c0-5.3,4.2-9.6,9.6-9.6c5.3,0,9.6,4.3,9.6,9.6c0,5.3-4.3,9.6-9.6,9.6
		C351.9,115,347.7,110.7,347.7,105.4L347.7,105.4z M310.7,105.4c0-5.3,4.3-9.6,9.6-9.6c5.4,0,9.6,4.3,9.6,9.6c0,5.3-4.2,9.6-9.6,9.6
		C315,115,310.7,110.7,310.7,105.4L310.7,105.4z M273.8,105.4c0-5.3,4.4-9.6,9.6-9.6c5.3,0,9.6,4.3,9.6,9.6c0,5.3-4.3,9.6-9.6,9.6
		C278.2,115,273.8,110.7,273.8,105.4L273.8,105.4z M237,105.4c0-5.3,4.2-9.6,9.6-9.6c5.3,0,9.6,4.3,9.6,9.6c0,5.3-4.4,9.6-9.6,9.6
		C241.2,115,237,110.7,237,105.4L237,105.4z M200.1,105.4c0-5.3,4.3-9.6,9.6-9.6c5.4,0,9.6,4.3,9.6,9.6c0,5.3-4.2,9.6-9.6,9.6
		C204.4,115,200.1,110.7,200.1,105.4L200.1,105.4z M163.2,105.4c0-5.3,4.3-9.6,9.6-9.6c5.3,0,9.6,4.3,9.6,9.6c0,5.3-4.3,9.6-9.6,9.6
		C167.5,115,163.2,110.7,163.2,105.4L163.2,105.4z M126.3,105.4c0-5.3,4.2-9.6,9.6-9.6c5.3,0,9.6,4.3,9.6,9.6c0,5.3-4.3,9.6-9.6,9.6
		C130.6,115,126.3,110.7,126.3,105.4L126.3,105.4z M89.3,105.4c0-5.3,4.4-9.6,9.6-9.6c5.4,0,9.6,4.3,9.6,9.6c0,5.3-4.2,9.6-9.6,9.6
		C93.7,115,89.3,110.7,89.3,105.4L89.3,105.4z M89.3,105.4"/>
	<path class="st3" d="M504.9,115c-2.6,0-5-1.1-6.9-2.9c-1.7-1.7-2.8-4.2-2.8-6.7c0-2.5,1-5,2.8-6.8c3.5-3.6,10-3.6,13.7,0
		c1.7,1.8,2.8,4.3,2.8,6.8c0,2.5-1,5-2.8,6.8C509.8,114,507.3,115,504.9,115L504.9,115z M504.9,115"/>
	<g>
		<path class="st4" d="M230.9,314.9c0,2.8-1,11-3.1,24.7c-0.4,1.5-1.2,2.2-2.5,2.1h-2.1c-21.5-0.8-43.6-1.4-66.3-1.6
			c10.4,18.7,27,28,49.6,28c3.7,0,8.2-0.6,13.4-1.8c5.2-1.2,7.9-1.8,8-1.8c1.6,0,2.5,1.6,2.5,4.7v53.9c0,7.3-8.9,10.9-26.6,10.9
			c-31.3,0-57.7-8.5-79.3-25.5c-20.7-16.5-34.5-38.9-41.4-67.3c-8.6,0.3-16.3,0.4-22.8,0.4c-2.5,0-3.7-1.7-3.7-5.2
			c0-1.1,0.3-2.4,1-4c0.7-1.6,1-3,1-4.2c0-9.1,0.1-13.9,0.4-14.6c0.8-1.8,2.4-2.7,4.7-2.7c4.7,0,9.7,0.1,15.2,0.2
			c-0.1-2.7-0.2-5.6-0.2-8.4c0-1.8,0-3.6,0-5.4c-6.9,0.1-13,0.2-18.5,0.2c-2.5,0-3.7-1.9-3.7-5.8c0,1.2,0.5-3.1,1.6-13.2
			c0.1-3.3,0.4-7,0.8-11.1c0.8-1.8,2.4-2.7,4.7-2.7c5.8,0,12.3,0.1,19.6,0.2c7.3-27.9,21.6-50,43-66.5
			c22.1-16.7,48.5-25.1,79.3-25.1c16.7,0,25.1,2.4,25.1,7.2c0,6.5-0.2,16.2-0.5,29.3c-0.3,13.1-0.5,22.9-0.5,29.3
			c0,2.2-1.7,3.3-5.1,3.3c-1.6,0-4.7-0.5-9.2-1.6c-4.5-1.1-7.9-1.6-10.4-1.6c-22.1,0-38.2,9.1-48.4,27.2c5.5-0.1,17.2-0.3,35.2-0.6
			c14.5-0.3,26.2-0.4,35-0.4c2.3,0,3.5,1.1,3.5,3.3c0,8.9-0.9,17.9-2.7,26.8c-0.3,1.8-1.2,2.7-2.9,2.7c-0.1,0-0.7-0.1-1.6-0.2
			c-10.8-1.5-35.8-2.1-74.9-1.9c-0.1,2.2-0.2,4.4-0.2,6.6c0,3.4,0.2,6.7,0.6,9.9c8.1,0,21.2-0.2,39.3-0.6c17-0.3,30.1-0.4,39.3-0.4
			C229.8,311.7,230.9,312.8,230.9,314.9z"/>
	</g>
</g>
</svg>
