<?xml version="1.0" encoding="utf-8"?>
<!-- Generator: Adobe Illustrator 22.0.1, SVG Export Plug-In . SVG Version: 6.00 Build 0)  -->
<svg version="1.1" id="Livello_1" xmlns="http://www.w3.org/2000/svg" xmlns:xlink="http://www.w3.org/1999/xlink" x="0px" y="0px"
	 viewBox="0 0 566.9 566.9" style="enable-background:new 0 0 566.9 566.9;" xml:space="preserve">
<style type="text/css">
	.st0{fill:#F8A914;stroke:#F8A914;stroke-width:1.8238;stroke-miterlimit:10;}
	.st1{fill:#F0EDE0;}
	.st2{fill:#D5C3A5;}
	.st3{fill:#F9EF81;}
	.st4{fill:#D43646;}
	.st5{display:none;}
	.st6{display:inline;fill:url(#SVGID_1_);}
	.st7{display:inline;fill:#F8A914;stroke:#F8A914;stroke-width:1.8288;stroke-miterlimit:10;}
	.st8{display:inline;fill:url(#SVGID_2_);}
	.st9{display:inline;fill:#EDE7EA;}
	.st10{display:inline;fill:#D43646;}
	.st11{display:inline;fill:#F8A914;stroke:#F8A914;stroke-width:2.0341;stroke-miterlimit:10;}
	.st12{display:inline;fill:#D7CFD1;}
	.st13{display:inline;}
	.st14{fill:#8B7E80;}
	.st15{display:inline;fill:#F38F1D;stroke:#F38F1D;stroke-width:1.6241;stroke-miterlimit:10;}
	.st16{display:inline;fill:#F8A914;stroke:#F8A914;stroke-width:1.6241;stroke-miterlimit:10;}
	.st17{display:inline;fill:#FFFFFF;}
</style>
<g>
	<path class="st0" d="M481,67H86c-12.5,0-22.8,10.2-22.8,22.8c0,12.5,10.2,22.8,22.8,22.8V89.7h395v22.8c12.5,0,22.8-10.3,22.8-22.8
		C503.7,77.2,493.5,67,481,67L481,67z M481,67"/>
	<path class="st1" d="M101.2,454.4l45.6,45.6l45.6-45.6l45.5,45.6l45.6-45.6l45.6,45.6l45.6-45.6l45.6,45.6l45.5-45.6l15.2,15.2
		V89.7H86v379.8L101.2,454.4z M101.2,454.4"/>
	<path class="st2" d="M389.8,378.4H275.9c-4.2,0-7.6-3.4-7.6-7.6c0-4.2,3.4-7.6,7.6-7.6h113.9c4.2,0,7.6,3.4,7.6,7.6
		C397.4,375,394,378.4,389.8,378.4L389.8,378.4z M389.8,378.4"/>
	<path class="st2" d="M427.8,378.4c-2,0-3.9-0.9-5.4-2.2c-1.4-1.4-2.2-3.4-2.2-5.4c0-2.1,0.8-4,2.2-5.4c2.9-2.8,7.9-2.8,10.8,0
		c1.4,1.4,2.2,3.3,2.2,5.4c0,2-0.8,3.9-2.2,5.4C431.8,377.6,429.8,378.4,427.8,378.4L427.8,378.4z M427.8,378.4"/>
	<path class="st2" d="M427.8,272.1H313.8c-4.2,0-7.6-3.4-7.6-7.6c0-4.2,3.4-7.6,7.6-7.6h113.9c4.2,0,7.6,3.4,7.6,7.6
		C435.4,268.7,432,272.1,427.8,272.1L427.8,272.1z M427.8,272.1"/>
	<path class="st2" d="M427.8,325.2h-76c-4.2,0-7.6-3.4-7.6-7.6c0-4.2,3.4-7.6,7.6-7.6h76c4.2,0,7.6,3.4,7.6,7.6
		C435.4,321.9,432,325.2,427.8,325.2L427.8,325.2z M427.8,325.2"/>
	<path class="st2" d="M291.1,325.2h-15.2c-4.2,0-7.6-3.4-7.6-7.6c0-4.2,3.4-7.6,7.6-7.6h15.2c4.2,0,7.6,3.4,7.6,7.6
		C298.7,321.9,295.3,325.2,291.1,325.2L291.1,325.2z M291.1,325.2"/>
	<path class="st2" d="M389.8,218.9H275.9c-4.2,0-7.6-3.4-7.6-7.6c0-4.2,3.4-7.6,7.6-7.6h113.9c4.2,0,7.6,3.4,7.6,7.6
		C397.4,215.5,394,218.9,389.8,218.9L389.8,218.9z M389.8,218.9"/>
	<path class="st2" d="M427.8,218.9c-2,0-3.9-0.9-5.4-2.2c-1.4-1.5-2.2-3.5-2.2-5.4c0-2,0.8-4,2.2-5.4c2.8-2.8,8-2.8,10.8,0
		c1.4,1.4,2.2,3.4,2.2,5.4c0,2-0.8,4-2.2,5.4C431.8,218,429.9,218.9,427.8,218.9L427.8,218.9z M427.8,218.9"/>
	<path class="st2" d="M283.5,272.1c-2,0-3.9-0.9-5.4-2.2c-1.4-1.4-2.2-3.3-2.2-5.4c0-2.1,0.9-4,2.2-5.4c2.9-2.8,8-2.8,10.8,0
		c1.3,1.5,2.2,3.3,2.2,5.4c0,2-0.9,3.9-2.2,5.4C287.4,271.2,285.4,272.1,283.5,272.1L283.5,272.1z M283.5,272.1"/>
	<path class="st2" d="M321.4,325.2c-2,0-3.9-0.8-5.4-2.2c-1.4-1.5-2.2-3.4-2.2-5.4c0-2,0.9-3.9,2.2-5.4c2.9-2.8,8-2.8,10.8,0
		c1.3,1.4,2.2,3.3,2.2,5.4c0,2.1-0.9,4-2.2,5.4C325.4,324.4,323.4,325.2,321.4,325.2L321.4,325.2z M321.4,325.2"/>
	<path class="st3" d="M108.8,150.5c-2,0-4-0.9-5.4-2.2c-1.3-1.4-2.2-3.4-2.2-5.4c0-2,0.9-4,2.2-5.4c2.9-2.8,8-2.8,10.8,0
		c1.4,1.4,2.2,3.4,2.2,5.4c0,2-0.9,3.9-2.2,5.4C112.7,149.7,110.7,150.5,108.8,150.5L108.8,150.5z M108.8,150.5"/>
	<path class="st3" d="M421.5,142.9c0-4.2,3.4-7.6,7.6-7.6c4.2,0,7.6,3.4,7.6,7.6s-3.4,7.6-7.6,7.6
		C424.9,150.5,421.5,147.1,421.5,142.9L421.5,142.9z M392.3,142.9c0-4.2,3.4-7.6,7.6-7.6c4.2,0,7.6,3.4,7.6,7.6s-3.4,7.6-7.6,7.6
		C395.7,150.5,392.3,147.1,392.3,142.9L392.3,142.9z M363.3,142.9c0-4.2,3.4-7.6,7.6-7.6c4.2,0,7.6,3.4,7.6,7.6s-3.4,7.6-7.6,7.6
		C366.7,150.5,363.3,147.1,363.3,142.9L363.3,142.9z M334.1,142.9c0-4.2,3.3-7.6,7.6-7.6c4.2,0,7.6,3.4,7.6,7.6s-3.4,7.6-7.6,7.6
		C337.5,150.5,334.1,147.1,334.1,142.9L334.1,142.9z M305,142.9c0-4.2,3.4-7.6,7.6-7.6c4.2,0,7.6,3.4,7.6,7.6s-3.3,7.6-7.6,7.6
		C308.4,150.5,305,147.1,305,142.9L305,142.9z M275.9,142.9c0-4.2,3.5-7.6,7.6-7.6c4.2,0,7.6,3.4,7.6,7.6s-3.4,7.6-7.6,7.6
		C279.3,150.5,275.9,147.1,275.9,142.9L275.9,142.9z M246.8,142.9c0-4.2,3.3-7.6,7.6-7.6c4.1,0,7.6,3.4,7.6,7.6s-3.5,7.6-7.6,7.6
		C250.1,150.5,246.8,147.1,246.8,142.9L246.8,142.9z M217.6,142.9c0-4.2,3.4-7.6,7.6-7.6c4.3,0,7.6,3.4,7.6,7.6s-3.3,7.6-7.6,7.6
		C221,150.5,217.6,147.1,217.6,142.9L217.6,142.9z M188.5,142.9c0-4.2,3.4-7.6,7.6-7.6c4.2,0,7.6,3.4,7.6,7.6s-3.4,7.6-7.6,7.6
		C191.9,150.5,188.5,147.1,188.5,142.9L188.5,142.9z M159.4,142.9c0-4.2,3.3-7.6,7.6-7.6c4.1,0,7.6,3.4,7.6,7.6s-3.4,7.6-7.6,7.6
		C162.8,150.5,159.4,147.1,159.4,142.9L159.4,142.9z M130.2,142.9c0-4.2,3.5-7.6,7.6-7.6c4.3,0,7.6,3.4,7.6,7.6s-3.3,7.6-7.6,7.6
		C133.7,150.5,130.2,147.1,130.2,142.9L130.2,142.9z M130.2,142.9"/>
	<path class="st3" d="M458.2,150.5c-2.1,0-4-0.9-5.4-2.3c-1.4-1.4-2.2-3.3-2.2-5.3c0-2,0.8-4,2.2-5.4c2.7-2.8,7.9-2.8,10.8,0
		c1.4,1.4,2.2,3.4,2.2,5.4c0,2-0.8,3.9-2.2,5.4C462.1,149.7,460.2,150.5,458.2,150.5L458.2,150.5z M458.2,150.5"/>
	<g>
		<path class="st4" d="M242,308.3c0,2.2-0.8,8.7-2.4,19.5c-0.3,1.2-1,1.7-2,1.6H236c-17-0.6-34.5-1.1-52.3-1.3
			c8.2,14.7,21.3,22.1,39.2,22.1c2.9,0,6.4-0.5,10.6-1.4c4.1-0.9,6.2-1.4,6.3-1.4c1.3,0,1.9,1.3,1.9,3.7v42.6c0,5.7-7,8.6-21,8.6
			c-24.7,0-45.6-6.7-62.6-20.2c-16.4-13-27.3-30.7-32.7-53.1c-6.8,0.2-12.8,0.3-18,0.3c-2,0-2.9-1.4-2.9-4.1c0-0.9,0.3-1.9,0.8-3.2
			c0.5-1.3,0.8-2.4,0.8-3.3c0-7.2,0.1-11,0.3-11.5c0.7-1.4,1.9-2.1,3.7-2.1c3.7,0,7.7,0.1,12,0.2c-0.1-2.2-0.2-4.4-0.2-6.7
			c0-1.4,0-2.8,0-4.2c-5.4,0.1-10.3,0.2-14.6,0.2c-2,0-2.9-1.5-2.9-4.6c0,1,0.4-2.5,1.3-10.4c0.1-2.6,0.3-5.5,0.7-8.8
			c0.7-1.4,1.9-2.1,3.7-2.1c4.6,0,9.7,0.1,15.4,0.2c5.7-22,17.1-39.5,34-52.5c17.4-13.2,38.3-19.8,62.6-19.8
			c13.2,0,19.8,1.9,19.8,5.7c0,5.1-0.1,12.8-0.4,23.2c-0.3,10.4-0.4,18.1-0.4,23.2c0,1.7-1.4,2.6-4.1,2.6c-1.3,0-3.7-0.4-7.2-1.3
			c-3.5-0.9-6.3-1.3-8.2-1.3c-17.4,0-30.2,7.2-38.2,21.5c4.3-0.1,13.6-0.3,27.8-0.5c11.5-0.2,20.7-0.3,27.6-0.3
			c1.8,0,2.8,0.9,2.8,2.6c0,7.1-0.7,14.1-2.1,21.1c-0.2,1.4-1,2.1-2.3,2.1c-0.1,0-0.5-0.1-1.3-0.2c-8.6-1.2-28.3-1.7-59.2-1.5
			c-0.1,1.7-0.2,3.5-0.2,5.2c0,2.7,0.2,5.3,0.5,7.8c6.4,0,16.7-0.2,31-0.5c13.4-0.2,23.8-0.3,31-0.3
			C241.1,305.7,242,306.6,242,308.3z"/>
	</g>
</g>
<g class="st5">
	
		<linearGradient id="SVGID_1_" gradientUnits="userSpaceOnUse" x1="8.6939" y1="604.2064" x2="8.6939" y2="312.4515" gradientTransform="matrix(-0.7393 0.6792 -0.6792 -0.7393 740.5192 697.5926)">
		<stop  offset="0" style="stop-color:#EA4E58"/>
		<stop  offset="1" style="stop-color:#BE4146"/>
	</linearGradient>
	<path class="st6" d="M421.9,116.8c5.4-5,13.8-4.6,18.8,0.8l30.9,33.6c3.6,3.9,5.1,9.5,4.1,14.8c-1.6,8.2,0.7,16.7,6.4,22.8
		c5.6,6.1,13.9,9.2,22.2,8.3c5.4-0.6,10.8,1.4,14.4,5.3l30.9,33.6c5,5.4,4.6,13.8-0.8,18.8l-246,226c-5.4,5-13.8,4.6-18.8-0.8
		L253,446.3c-3.6-3.9-5.1-9.5-4.1-14.8c1.6-8.2-0.7-16.7-6.4-22.8c-5.6-6.1-13.9-9.2-22.2-8.3c-5.4,0.6-10.8-1.4-14.4-5.3
		l-30.9-33.6c-5-5.4-4.6-13.8,0.8-18.8L421.9,116.8L421.9,116.8z"/>
	<path class="st7" d="M208.1,81.8c0.8-7.3,7.4-12.5,14.6-11.7l45.4,5c5.3,0.6,10.1,3.8,12.8,8.5c4.1,7.2,11.5,12.1,19.8,13
		c8.3,0.9,16.5-2.2,22.1-8.4c3.7-4,9-6.1,14.4-5.5l45.4,5c7.3,0.8,12.5,7.4,11.7,14.6l-36.4,332c-0.8,7.3-7.4,12.5-14.6,11.7
		l-45.4-5c-5.3-0.6-10.1-3.8-12.8-8.5c-4.1-7.2-11.5-12.1-19.8-13c-8.3-0.9-16.5,2.2-22.1,8.4c-3.7,4-9,6.1-14.4,5.5l-45.4-5
		c-7.3-0.8-12.5-7.4-11.7-14.6L208.1,81.8L208.1,81.8z"/>
	
		<linearGradient id="SVGID_2_" gradientUnits="userSpaceOnUse" x1="159.4288" y1="696.5457" x2="159.4288" y2="404.7908" gradientTransform="matrix(0.5005 0.8703 -0.8703 0.5005 657.22 -160.1696)">
		<stop  offset="0" style="stop-color:#EA4E58"/>
		<stop  offset="1" style="stop-color:#BE4146"/>
	</linearGradient>
	<path class="st8" d="M15.8,200.7c-3.6-6.3-1.5-14.5,4.9-18.1l39.6-22.8c4.6-2.7,10.4-2.9,15.4-0.7c7.6,3.4,16.4,2.9,23.6-1.2
		c7.2-4.1,12-11.6,12.9-19.8c0.6-5.4,3.7-10.2,8.3-12.9l39.6-22.8c6.3-3.6,14.5-1.5,18.1,4.9l166.5,289.6c3.6,6.3,1.5,14.5-4.9,18.1
		l-39.6,22.8c-4.6,2.7-10.4,2.9-15.4,0.7c-7.6-3.4-16.4-2.9-23.6,1.2c-7.2,4.1-12,11.6-12.9,19.8c-0.6,5.4-3.7,10.2-8.3,12.9
		l-39.6,22.8c-6.3,3.6-14.5,1.5-18.1-4.9L15.8,200.7L15.8,200.7z"/>
</g>
<g class="st5">
	<polygon class="st9" points="512.2,120.8 512.2,496.9 54.8,496.9 54.8,120.8 283.5,100.5 	"/>
	<polygon class="st10" points="512.2,70 512.2,120.8 461.3,120.8 430.8,95.4 461.3,70 	"/>
	<rect x="54.8" y="70" class="st11" width="406.6" height="50.8"/>
	<path class="st12" d="M451.2,286H115.8c-4.2,0-7.6-3.4-7.6-7.6s3.4-7.6,7.6-7.6h335.4c4.2,0,7.6,3.4,7.6,7.6S455.4,286,451.2,286z"
		/>
	<g class="st13">
		<path class="st14" d="M263.1,326.7H115.8c-4.2,0-7.6-3.4-7.6-7.6s3.4-7.6,7.6-7.6h147.4c4.2,0,7.6,3.4,7.6,7.6
			S267.3,326.7,263.1,326.7z"/>
		<path class="st14" d="M263.1,367.3H115.8c-4.2,0-7.6-3.4-7.6-7.6s3.4-7.6,7.6-7.6h147.4c4.2,0,7.6,3.4,7.6,7.6
			S267.3,367.3,263.1,367.3z"/>
		<path class="st14" d="M263.1,408H115.8c-4.2,0-7.6-3.4-7.6-7.6s3.4-7.6,7.6-7.6h147.4c4.2,0,7.6,3.4,7.6,7.6S267.3,408,263.1,408z
			"/>
	</g>
	<rect x="303.8" y="319" class="st10" width="147.4" height="122"/>
	<g class="st13">
		<path class="st14" d="M263.1,448.6H115.8c-4.2,0-7.6-3.4-7.6-7.6s3.4-7.6,7.6-7.6h147.4c4.2,0,7.6,3.4,7.6,7.6
			S267.3,448.6,263.1,448.6z"/>
		<path class="st14" d="M407.7,245.3c-13.7,0-24.4-6-27.9-15.7c-1.4-4,0.6-8.3,4.6-9.8c4-1.4,8.3,0.6,9.8,4.6
			c1.2,3.4,6.7,5.6,13.6,5.6c5.2,0,13.9-1.6,13.9-7.6c0-4.1-1.9-5.6-15.1-7.7c-5.9-1-12-2-17.1-4.7c-7.1-3.7-10.8-10-10.8-18.1
			c0-13.5,12-22.9,29.2-22.9c13.7,0,24.4,6,27.9,15.7c1.4,4-0.6,8.3-4.6,9.8c-4,1.4-8.3-0.6-9.8-4.6c-1.2-3.4-6.7-5.6-13.6-5.6
			c-5.2,0-13.9,1.6-13.9,7.6c0,4.1,1.9,5.5,15.1,7.7c5.9,1,12,2,17.1,4.7c7.1,3.7,10.8,10,10.8,18.1
			C436.8,235.9,424.8,245.3,407.7,245.3z"/>
		<path class="st14" d="M340.2,245.3c-2.8,0-5.5-1.6-6.8-4.2l-8.7-17.1l-8.7,17.1c-1.4,2.8-4.5,4.5-7.6,4.1
			c-3.2-0.3-5.8-2.6-6.5-5.7l-15.5-61c-1-4.1,1.4-8.2,5.5-9.3c4.1-1,8.2,1.4,9.3,5.5l10.5,41.3l6.3-12.4c1.3-2.6,3.9-4.2,6.8-4.2
			s5.5,1.6,6.8,4.2l6.3,12.4l10.5-41.3c1-4.1,5.2-6.6,9.3-5.5c4.1,1,6.6,5.2,5.5,9.3l-15.5,61c-0.8,3.1-3.4,5.4-6.5,5.7
			C340.7,245.3,340.5,245.3,340.2,245.3z"/>
		<path class="st14" d="M263.3,245.3h-43.1c-4.2,0-7.6-3.4-7.6-7.6v-61c0-4.2,3.4-7.6,7.6-7.6h43.1c4.2,0,7.6,3.4,7.6,7.6
			s-3.4,7.6-7.6,7.6h-35.5v45.7h35.5c4.2,0,7.6,3.4,7.6,7.6S267.6,245.3,263.3,245.3z"/>
		<path class="st14" d="M249,214.9h-28.7c-4.2,0-7.6-3.4-7.6-7.6s3.4-7.6,7.6-7.6H249c4.2,0,7.6,3.4,7.6,7.6S253.2,214.9,249,214.9z
			"/>
		<path class="st14" d="M189.8,245.3c-2.2,0-4.3-0.9-5.8-2.7l-38.6-45.3v40.3c0,4.2-3.4,7.6-7.6,7.6c-4.2,0-7.6-3.4-7.6-7.6v-61
			c0-3.2,2-6,5-7.2c3-1.1,6.4-0.2,8.4,2.2l38.6,45.3v-40.3c0-4.2,3.4-7.6,7.6-7.6s7.6,3.4,7.6,7.6v61c0,3.2-2,6-5,7.2
			C191.5,245.2,190.7,245.3,189.8,245.3z"/>
	</g>
</g>
<g class="st5">
	<path class="st15" d="M430.5,80.4v406.2c0,2.9-2.4,5.3-5.3,5.3H141.7c-2.9,0-5.3-2.4-5.3-5.3V80.4c0-2.9,2.4-5.3,5.3-5.3h283.5
		C428.1,75.1,430.5,77.5,430.5,80.4L430.5,80.4z M430.5,80.4"/>
	<path class="st16" d="M430.5,80.4v406.2c0,2.9-2.4,5.3-5.3,5.3H167.1c-2.9,0-5.3-2.4-5.3-5.3V80.4c0-2.9,2.4-5.3,5.3-5.3h258.1
		C428.1,75.1,430.5,77.5,430.5,80.4L430.5,80.4z M430.5,80.4"/>
	<path class="st15" d="M209.1,378.5h148.7c3.5,0,6.3-2.8,6.3-6.3c0-3.5-2.8-6.3-6.3-6.3H209.1c-3.5,0-6.3,2.8-6.3,6.3
		C202.8,375.6,205.6,378.5,209.1,378.5L209.1,378.5z M209.1,378.5"/>
	<path class="st15" d="M175.7,413.9h215.4c3.5,0,6.3-2.8,6.3-6.3c0-3.5-2.8-6.3-6.3-6.3H175.7c-3.5,0-6.3,2.8-6.3,6.3
		C169.4,411.1,172.2,413.9,175.7,413.9L175.7,413.9z M175.7,413.9"/>
	<path class="st15" d="M391.2,436.7H175.7c-3.5,0-6.3,2.8-6.3,6.3c0,3.5,2.8,6.3,6.3,6.3h215.4c3.5,0,6.3-2.8,6.3-6.3
		C397.5,439.5,394.7,436.7,391.2,436.7L391.2,436.7z M391.2,436.7"/>
	<path class="st17" d="M395.5,216.2c0,61.9-50.2,112.1-112.1,112.1s-112.1-50.2-112.1-112.1c0-61.9,50.2-112.1,112.1-112.1
		S395.5,154.3,395.5,216.2L395.5,216.2z M395.5,216.2"/>
	<path class="st10" d="M368.6,173.5c3.8,0,6.9,3.1,6.9,6.9l0,23.6c0,2.8-1.4,5.4-3.6,7.1c-3.5,2.5-5.6,6.6-5.6,10.9
		c0,4.3,2.1,8.4,5.6,10.9c2.3,1.7,3.6,4.3,3.6,7.1l0,23.6c0,3.8-3.1,6.9-6.9,6.9l-172.8,0c-3.8,0-6.9-3.1-6.9-6.9l0-23.6
		c0-2.8,1.4-5.4,3.6-7.1c3.5-2.5,5.6-6.6,5.6-10.9c0-4.3-2.1-8.4-5.6-10.9c-2.3-1.7-3.6-4.3-3.6-7.1l0-23.6c0-3.8,3.1-6.9,6.9-6.9
		L368.6,173.5L368.6,173.5z"/>
</g>
</svg>
