<?xml version="1.0" encoding="utf-8"?>
<!-- Generator: Adobe Illustrator 22.0.1, SVG Export Plug-In . SVG Version: 6.00 Build 0)  -->
<svg version="1.1" id="Livello_1" xmlns="http://www.w3.org/2000/svg" xmlns:xlink="http://www.w3.org/1999/xlink" x="0px" y="0px"
	 viewBox="0 0 841.9 595.3" style="enable-background:new 0 0 841.9 595.3;" xml:space="preserve">
<style type="text/css">
	.st0{fill:#FEDC44;}
	.st1{fill:#FECB3C;}
	.st2{fill:#F7A637;}
	.st3{fill:#F4992E;}
	.st4{fill:#FCC844;}
</style>
<path class="st0" d="M421.7,19.7c-152.9,0-279.3,124.2-279.3,277.1s126.4,279.3,279.3,279.3s277.1-126.4,277.1-279.3
	S574.6,19.7,421.7,19.7z"/>
<path class="st1" d="M698.8,296.8c0,152.9-124.2,279.3-277.1,279.3V19.7C574.6,19.7,698.8,143.9,698.8,296.8z"/>
<path class="st2" d="M421.7,84.9c-116.7,0-214.1,95.2-214.1,211.9s97.4,214.1,214.1,214.1s211.9-97.4,211.9-214.1
	S538.4,84.9,421.7,84.9z"/>
<path class="st3" d="M633.6,296.8c0,116.7-95.2,214.1-211.9,214.1v-426C538.4,84.9,633.6,180.2,633.6,296.8z"/>
<g>
	<path class="st0" d="M560.2,265.9c0,34.1-8.9,61.7-26.8,82.8c-19.2,22.4-45.6,33.6-79.3,33.6c-5.6,0-14.1-0.3-25.5-0.9
		s-19.8-0.9-25.5-0.9c-6.1,0-9.1,2.6-9.1,7.8c0,6.5,0.6,16.1,1.9,28.9c1.3,12.8,1.9,22.4,1.9,28.8c0,3.3-1.5,4.8-4.5,4.8
		c-8.6,0-21.5-0.3-38.7-0.7c-17.2-0.5-30.1-0.7-38.7-0.7c-4.1,0-6.1-2-6.1-6.1c0-15.7,0.3-39.1,0.7-70.4s0.7-54.9,0.7-70.4
		c0-44.2-1.9-90.7-5.7-139.5l-0.2-3c-0.3-2.6,1.8-4.3,6.4-4.8c11-1.4,35.2-2.1,72.7-2.1c22.1,0,43.3,0.3,63.6,0.8
		c33.4,1,60.3,11.5,80.7,31.5C549.8,205.7,560.2,232.7,560.2,265.9z M475.9,269.2c0-32.8-16-49.2-48-49.2c-22.6,0-34.4,1.3-35.5,3.8
		c-1,1.8-1.5,18.1-1.5,48.8c0,4.4,0.2,10.8,0.5,19.3c0.4,8.6,0.5,14.9,0.5,19.3c0,2.8,12.6,4.2,38,4.2
		C460.6,315.6,475.9,300.1,475.9,269.2z"/>
</g>
<path class="st4" d="M528.8,185.2c-20.6-20-47.6-30.5-81.1-31.5c-8.2-0.2-16.6-0.4-25-0.5V220c1.5,0,3,0,4.6,0
	c32.1,0,48.2,16.4,48.2,49.2c0,30.8-15.4,46.3-46,46.3c-2.4,0-4.6,0-6.7,0v65.6c1.7,0.1,3.5,0.2,5.4,0.3c11.4,0.6,19.9,0.9,25.6,0.9
	c33.8,0,60.3-11.2,79.6-33.6c17.9-21.1,26.9-48.8,26.9-82.8C560.2,232.6,549.7,205.7,528.8,185.2z"/>
</svg>
