<?xml version="1.0" encoding="utf-8"?>
<!-- Generator: Adobe Illustrator 22.0.1, SVG Export Plug-In . SVG Version: 6.00 Build 0)  -->
<svg version="1.1" id="Livello_1" xmlns="http://www.w3.org/2000/svg" xmlns:xlink="http://www.w3.org/1999/xlink" x="0px" y="0px"
	 viewBox="0 0 566.9 566.9" style="enable-background:new 0 0 566.9 566.9;" xml:space="preserve">
<style type="text/css">
	.st0{display:none;}
	.st1{display:inline;fill:#F8A914;stroke:#F8A914;stroke-width:2.3107;stroke-miterlimit:10;}
	.st2{display:inline;fill:#F0EDE0;}
	.st3{display:inline;fill:#D5C3A5;}
	.st4{display:inline;fill:#F9EF81;}
	.st5{display:inline;}
	.st6{fill:#D43646;}
	.st7{fill:url(#SVGID_1_);}
	.st8{fill:#F8A914;stroke:#F8A914;stroke-width:1.8288;stroke-miterlimit:10;}
	.st9{fill:url(#SVGID_2_);}
	.st10{display:inline;fill:#EDE7EA;}
	.st11{display:inline;fill:#D43646;}
	.st12{display:inline;fill:#F8A914;stroke:#F8A914;stroke-width:2.0341;stroke-miterlimit:10;}
	.st13{display:inline;fill:#D7CFD1;}
	.st14{fill:#8B7E80;}
	.st15{display:inline;fill:#F38F1D;stroke:#F38F1D;stroke-width:1.6241;stroke-miterlimit:10;}
	.st16{display:inline;fill:#F8A914;stroke:#F8A914;stroke-width:1.6241;stroke-miterlimit:10;}
	.st17{display:inline;fill:#FFFFFF;}
</style>
<g class="st0">
	<path class="st1" d="M533.7,9.2H33.2C17.4,9.2,4.4,22.1,4.4,38c0,15.9,13,28.9,28.8,28.9V38h500.5v28.9c15.9,0,28.8-13,28.8-28.9
		C562.5,22.1,549.6,9.2,533.7,9.2L533.7,9.2z M533.7,9.2"/>
	<path class="st2" d="M52.5,500l57.8,57.8L168,500l57.7,57.8l57.8-57.8l57.8,57.8L399,500l57.8,57.8l57.7-57.8l19.3,19.2V38H33.2
		v481.2L52.5,500z M52.5,500"/>
	<path class="st3" d="M418.2,403.8H273.8c-5.3,0-9.6-4.3-9.6-9.6c0-5.3,4.3-9.6,9.6-9.6h144.4c5.3,0,9.6,4.3,9.6,9.6
		C427.8,399.4,423.5,403.8,418.2,403.8L418.2,403.8z M418.2,403.8"/>
	<path class="st3" d="M466.3,403.8c-2.5,0-5-1.1-6.8-2.8c-1.7-1.8-2.8-4.3-2.8-6.8c0-2.6,1-5,2.8-6.8c3.7-3.6,10-3.6,13.7,0
		c1.7,1.8,2.8,4.2,2.8,6.8c0,2.5-1,5-2.8,6.8C471.3,402.7,468.8,403.8,466.3,403.8L466.3,403.8z M466.3,403.8"/>
	<path class="st3" d="M466.3,269H321.9c-5.3,0-9.6-4.3-9.6-9.6c0-5.3,4.3-9.6,9.6-9.6h144.4c5.3,0,9.6,4.3,9.6,9.6
		C475.9,264.7,471.6,269,466.3,269L466.3,269z M466.3,269"/>
	<path class="st3" d="M466.3,336.4h-96.2c-5.3,0-9.6-4.3-9.6-9.6c0-5.3,4.3-9.6,9.6-9.6h96.2c5.3,0,9.6,4.3,9.6,9.6
		C475.9,332.1,471.6,336.4,466.3,336.4L466.3,336.4z M466.3,336.4"/>
	<path class="st3" d="M293.1,336.4h-19.3c-5.3,0-9.6-4.3-9.6-9.6c0-5.3,4.3-9.6,9.6-9.6h19.3c5.3,0,9.6,4.3,9.6,9.6
		C302.7,332.1,298.4,336.4,293.1,336.4L293.1,336.4z M293.1,336.4"/>
	<path class="st3" d="M418.2,201.6H273.8c-5.3,0-9.6-4.3-9.6-9.6c0-5.3,4.3-9.6,9.6-9.6h144.4c5.3,0,9.6,4.3,9.6,9.6
		C427.8,197.3,423.5,201.6,418.2,201.6L418.2,201.6z M418.2,201.6"/>
	<path class="st3" d="M466.3,201.6c-2.5,0-5-1.1-6.8-2.8c-1.7-1.8-2.8-4.4-2.8-6.9c0-2.6,1-5,2.8-6.8c3.6-3.6,10.1-3.6,13.7,0
		c1.7,1.8,2.8,4.3,2.8,6.8c0,2.5-1,5-2.8,6.9C471.3,200.6,468.9,201.6,466.3,201.6L466.3,201.6z M466.3,201.6"/>
	<path class="st3" d="M283.5,269c-2.5,0-5-1.1-6.8-2.8c-1.7-1.8-2.8-4.2-2.8-6.8c0-2.6,1.1-5,2.8-6.9c3.7-3.5,10.1-3.5,13.7,0
		c1.7,1.8,2.8,4.2,2.8,6.9c0,2.6-1.1,5-2.8,6.8C288.5,268,286,269,283.5,269L283.5,269z M283.5,269"/>
	<path class="st3" d="M331.6,336.4c-2.5,0-5-1-6.8-2.8c-1.7-1.8-2.8-4.3-2.8-6.9c0-2.5,1.1-5,2.8-6.8c3.7-3.6,10.1-3.6,13.7,0
		c1.7,1.7,2.8,4.2,2.8,6.8c0,2.6-1.1,5-2.8,6.9C336.6,335.3,334.1,336.4,331.6,336.4L331.6,336.4z M331.6,336.4"/>
	<path class="st4" d="M62.1,115c-2.5,0-5-1.1-6.9-2.8c-1.7-1.8-2.8-4.3-2.8-6.8c0-2.5,1.1-5,2.8-6.8c3.7-3.6,10.1-3.6,13.7,0
		c1.7,1.8,2.8,4.3,2.8,6.8c0,2.5-1.1,5-2.8,6.8C67.1,114,64.6,115,62.1,115L62.1,115z M62.1,115"/>
	<path class="st4" d="M458.3,105.4c0-5.3,4.3-9.6,9.6-9.6c5.3,0,9.6,4.3,9.6,9.6c0,5.3-4.3,9.6-9.6,9.6
		C462.6,115,458.3,110.7,458.3,105.4L458.3,105.4z M421.4,105.4c0-5.3,4.3-9.6,9.6-9.6c5.4,0,9.6,4.3,9.6,9.6c0,5.3-4.3,9.6-9.6,9.6
		C425.7,115,421.4,110.7,421.4,105.4L421.4,105.4z M384.6,105.4c0-5.3,4.3-9.6,9.6-9.6c5.3,0,9.6,4.3,9.6,9.6c0,5.3-4.3,9.6-9.6,9.6
		C388.9,115,384.6,110.7,384.6,105.4L384.6,105.4z M347.7,105.4c0-5.3,4.2-9.6,9.6-9.6c5.3,0,9.6,4.3,9.6,9.6c0,5.3-4.3,9.6-9.6,9.6
		C351.9,115,347.7,110.7,347.7,105.4L347.7,105.4z M310.7,105.4c0-5.3,4.3-9.6,9.6-9.6c5.4,0,9.6,4.3,9.6,9.6c0,5.3-4.2,9.6-9.6,9.6
		C315,115,310.7,110.7,310.7,105.4L310.7,105.4z M273.8,105.4c0-5.3,4.4-9.6,9.6-9.6c5.3,0,9.6,4.3,9.6,9.6c0,5.3-4.3,9.6-9.6,9.6
		C278.2,115,273.8,110.7,273.8,105.4L273.8,105.4z M237,105.4c0-5.3,4.2-9.6,9.6-9.6c5.3,0,9.6,4.3,9.6,9.6c0,5.3-4.4,9.6-9.6,9.6
		C241.2,115,237,110.7,237,105.4L237,105.4z M200.1,105.4c0-5.3,4.3-9.6,9.6-9.6c5.4,0,9.6,4.3,9.6,9.6c0,5.3-4.2,9.6-9.6,9.6
		C204.4,115,200.1,110.7,200.1,105.4L200.1,105.4z M163.2,105.4c0-5.3,4.3-9.6,9.6-9.6c5.3,0,9.6,4.3,9.6,9.6c0,5.3-4.3,9.6-9.6,9.6
		C167.5,115,163.2,110.7,163.2,105.4L163.2,105.4z M126.3,105.4c0-5.3,4.2-9.6,9.6-9.6c5.3,0,9.6,4.3,9.6,9.6c0,5.3-4.3,9.6-9.6,9.6
		C130.6,115,126.3,110.7,126.3,105.4L126.3,105.4z M89.3,105.4c0-5.3,4.4-9.6,9.6-9.6c5.4,0,9.6,4.3,9.6,9.6c0,5.3-4.2,9.6-9.6,9.6
		C93.7,115,89.3,110.7,89.3,105.4L89.3,105.4z M89.3,105.4"/>
	<path class="st4" d="M504.9,115c-2.6,0-5-1.1-6.9-2.9c-1.7-1.7-2.8-4.2-2.8-6.7c0-2.5,1-5,2.8-6.8c3.5-3.6,10-3.6,13.7,0
		c1.7,1.8,2.8,4.3,2.8,6.8c0,2.5-1,5-2.8,6.8C509.8,114,507.3,115,504.9,115L504.9,115z M504.9,115"/>
	<g class="st5">
		<path class="st6" d="M230.9,314.9c0,2.8-1,11-3.1,24.7c-0.4,1.5-1.2,2.2-2.5,2.1h-2.1c-21.5-0.8-43.6-1.4-66.3-1.6
			c10.4,18.7,27,28,49.6,28c3.7,0,8.2-0.6,13.4-1.8c5.2-1.2,7.9-1.8,8-1.8c1.6,0,2.5,1.6,2.5,4.7v53.9c0,7.3-8.9,10.9-26.6,10.9
			c-31.3,0-57.7-8.5-79.3-25.5c-20.7-16.5-34.5-38.9-41.4-67.3c-8.6,0.3-16.3,0.4-22.8,0.4c-2.5,0-3.7-1.7-3.7-5.2
			c0-1.1,0.3-2.4,1-4c0.7-1.6,1-3,1-4.2c0-9.1,0.1-13.9,0.4-14.6c0.8-1.8,2.4-2.7,4.7-2.7c4.7,0,9.7,0.1,15.2,0.2
			c-0.1-2.7-0.2-5.6-0.2-8.4c0-1.8,0-3.6,0-5.4c-6.9,0.1-13,0.2-18.5,0.2c-2.5,0-3.7-1.9-3.7-5.8c0,1.2,0.5-3.1,1.6-13.2
			c0.1-3.3,0.4-7,0.8-11.1c0.8-1.8,2.4-2.7,4.7-2.7c5.8,0,12.3,0.1,19.6,0.2c7.3-27.9,21.6-50,43-66.5
			c22.1-16.7,48.5-25.1,79.3-25.1c16.7,0,25.1,2.4,25.1,7.2c0,6.5-0.2,16.2-0.5,29.3c-0.3,13.1-0.5,22.9-0.5,29.3
			c0,2.2-1.7,3.3-5.1,3.3c-1.6,0-4.7-0.5-9.2-1.6c-4.5-1.1-7.9-1.6-10.4-1.6c-22.1,0-38.2,9.1-48.4,27.2c5.5-0.1,17.2-0.3,35.2-0.6
			c14.5-0.3,26.2-0.4,35-0.4c2.3,0,3.5,1.1,3.5,3.3c0,8.9-0.9,17.9-2.7,26.8c-0.3,1.8-1.2,2.7-2.9,2.7c-0.1,0-0.7-0.1-1.6-0.2
			c-10.8-1.5-35.8-2.1-74.9-1.9c-0.1,2.2-0.2,4.4-0.2,6.6c0,3.4,0.2,6.7,0.6,9.9c8.1,0,21.2-0.2,39.3-0.6c17-0.3,30.1-0.4,39.3-0.4
			C229.8,311.7,230.9,312.8,230.9,314.9z"/>
	</g>
</g>
<g>
	
		<linearGradient id="SVGID_1_" gradientUnits="userSpaceOnUse" x1="8.6939" y1="604.2064" x2="8.6939" y2="312.4515" gradientTransform="matrix(-0.7393 0.6792 -0.6792 -0.7393 740.5192 697.5926)">
		<stop  offset="0" style="stop-color:#EA4E58"/>
		<stop  offset="1" style="stop-color:#BE4146"/>
	</linearGradient>
	<path class="st7" d="M421.9,116.8c5.4-5,13.8-4.6,18.8,0.8l30.9,33.6c3.6,3.9,5.1,9.5,4.1,14.8c-1.6,8.2,0.7,16.7,6.4,22.8
		c5.6,6.1,13.9,9.2,22.2,8.3c5.4-0.6,10.8,1.4,14.4,5.3l30.9,33.6c5,5.4,4.6,13.8-0.8,18.8l-246,226c-5.4,5-13.8,4.6-18.8-0.8
		L253,446.3c-3.6-3.9-5.1-9.5-4.1-14.8c1.6-8.2-0.7-16.7-6.4-22.8c-5.6-6.1-13.9-9.2-22.2-8.3c-5.4,0.6-10.8-1.4-14.4-5.3
		l-30.9-33.6c-5-5.4-4.6-13.8,0.8-18.8L421.9,116.8L421.9,116.8z"/>
	<path class="st8" d="M208.1,81.8c0.8-7.3,7.4-12.5,14.6-11.7l45.4,5c5.3,0.6,10.1,3.8,12.8,8.5c4.1,7.2,11.5,12.1,19.8,13
		c8.3,0.9,16.5-2.2,22.1-8.4c3.7-4,9-6.1,14.4-5.5l45.4,5c7.3,0.8,12.5,7.4,11.7,14.6l-36.4,332c-0.8,7.3-7.4,12.5-14.6,11.7
		l-45.4-5c-5.3-0.6-10.1-3.8-12.8-8.5c-4.1-7.2-11.5-12.1-19.8-13c-8.3-0.9-16.5,2.2-22.1,8.4c-3.7,4-9,6.1-14.4,5.5l-45.4-5
		c-7.3-0.8-12.5-7.4-11.7-14.6L208.1,81.8L208.1,81.8z"/>
	
		<linearGradient id="SVGID_2_" gradientUnits="userSpaceOnUse" x1="159.4288" y1="696.5457" x2="159.4288" y2="404.7908" gradientTransform="matrix(0.5005 0.8703 -0.8703 0.5005 657.22 -160.1696)">
		<stop  offset="0" style="stop-color:#EA4E58"/>
		<stop  offset="1" style="stop-color:#BE4146"/>
	</linearGradient>
	<path class="st9" d="M15.8,200.7c-3.6-6.3-1.5-14.5,4.9-18.1l39.6-22.8c4.6-2.7,10.4-2.9,15.4-0.7c7.6,3.4,16.4,2.9,23.6-1.2
		c7.2-4.1,12-11.6,12.9-19.8c0.6-5.4,3.7-10.2,8.3-12.9l39.6-22.8c6.3-3.6,14.5-1.5,18.1,4.9l166.5,289.6c3.6,6.3,1.5,14.5-4.9,18.1
		l-39.6,22.8c-4.6,2.7-10.4,2.9-15.4,0.7c-7.6-3.4-16.4-2.9-23.6,1.2c-7.2,4.1-12,11.6-12.9,19.8c-0.6,5.4-3.7,10.2-8.3,12.9
		l-39.6,22.8c-6.3,3.6-14.5,1.5-18.1-4.9L15.8,200.7L15.8,200.7z"/>
</g>
<g class="st0">
	<polygon class="st10" points="512.2,120.8 512.2,496.9 54.8,496.9 54.8,120.8 283.5,100.5 	"/>
	<polygon class="st11" points="512.2,70 512.2,120.8 461.3,120.8 430.8,95.4 461.3,70 	"/>
	<rect x="54.8" y="70" class="st12" width="406.6" height="50.8"/>
	<path class="st13" d="M451.2,286H115.8c-4.2,0-7.6-3.4-7.6-7.6s3.4-7.6,7.6-7.6h335.4c4.2,0,7.6,3.4,7.6,7.6S455.4,286,451.2,286z"
		/>
	<g class="st5">
		<path class="st14" d="M263.1,326.7H115.8c-4.2,0-7.6-3.4-7.6-7.6s3.4-7.6,7.6-7.6h147.4c4.2,0,7.6,3.4,7.6,7.6
			S267.3,326.7,263.1,326.7z"/>
		<path class="st14" d="M263.1,367.3H115.8c-4.2,0-7.6-3.4-7.6-7.6s3.4-7.6,7.6-7.6h147.4c4.2,0,7.6,3.4,7.6,7.6
			S267.3,367.3,263.1,367.3z"/>
		<path class="st14" d="M263.1,408H115.8c-4.2,0-7.6-3.4-7.6-7.6s3.4-7.6,7.6-7.6h147.4c4.2,0,7.6,3.4,7.6,7.6S267.3,408,263.1,408z
			"/>
	</g>
	<rect x="303.8" y="319" class="st11" width="147.4" height="122"/>
	<g class="st5">
		<path class="st14" d="M263.1,448.6H115.8c-4.2,0-7.6-3.4-7.6-7.6s3.4-7.6,7.6-7.6h147.4c4.2,0,7.6,3.4,7.6,7.6
			S267.3,448.6,263.1,448.6z"/>
		<path class="st14" d="M407.7,245.3c-13.7,0-24.4-6-27.9-15.7c-1.4-4,0.6-8.3,4.6-9.8c4-1.4,8.3,0.6,9.8,4.6
			c1.2,3.4,6.7,5.6,13.6,5.6c5.2,0,13.9-1.6,13.9-7.6c0-4.1-1.9-5.6-15.1-7.7c-5.9-1-12-2-17.1-4.7c-7.1-3.7-10.8-10-10.8-18.1
			c0-13.5,12-22.9,29.2-22.9c13.7,0,24.4,6,27.9,15.7c1.4,4-0.6,8.3-4.6,9.8c-4,1.4-8.3-0.6-9.8-4.6c-1.2-3.4-6.7-5.6-13.6-5.6
			c-5.2,0-13.9,1.6-13.9,7.6c0,4.1,1.9,5.5,15.1,7.7c5.9,1,12,2,17.1,4.7c7.1,3.7,10.8,10,10.8,18.1
			C436.8,235.9,424.8,245.3,407.7,245.3z"/>
		<path class="st14" d="M340.2,245.3c-2.8,0-5.5-1.6-6.8-4.2l-8.7-17.1l-8.7,17.1c-1.4,2.8-4.5,4.5-7.6,4.1
			c-3.2-0.3-5.8-2.6-6.5-5.7l-15.5-61c-1-4.1,1.4-8.2,5.5-9.3c4.1-1,8.2,1.4,9.3,5.5l10.5,41.3l6.3-12.4c1.3-2.6,3.9-4.2,6.8-4.2
			s5.5,1.6,6.8,4.2l6.3,12.4l10.5-41.3c1-4.1,5.2-6.6,9.3-5.5c4.1,1,6.6,5.2,5.5,9.3l-15.5,61c-0.8,3.1-3.4,5.4-6.5,5.7
			C340.7,245.3,340.5,245.3,340.2,245.3z"/>
		<path class="st14" d="M263.3,245.3h-43.1c-4.2,0-7.6-3.4-7.6-7.6v-61c0-4.2,3.4-7.6,7.6-7.6h43.1c4.2,0,7.6,3.4,7.6,7.6
			s-3.4,7.6-7.6,7.6h-35.5v45.7h35.5c4.2,0,7.6,3.4,7.6,7.6S267.6,245.3,263.3,245.3z"/>
		<path class="st14" d="M249,214.9h-28.7c-4.2,0-7.6-3.4-7.6-7.6s3.4-7.6,7.6-7.6H249c4.2,0,7.6,3.4,7.6,7.6S253.2,214.9,249,214.9z
			"/>
		<path class="st14" d="M189.8,245.3c-2.2,0-4.3-0.9-5.8-2.7l-38.6-45.3v40.3c0,4.2-3.4,7.6-7.6,7.6c-4.2,0-7.6-3.4-7.6-7.6v-61
			c0-3.2,2-6,5-7.2c3-1.1,6.4-0.2,8.4,2.2l38.6,45.3v-40.3c0-4.2,3.4-7.6,7.6-7.6s7.6,3.4,7.6,7.6v61c0,3.2-2,6-5,7.2
			C191.5,245.2,190.7,245.3,189.8,245.3z"/>
	</g>
</g>
<g class="st0">
	<path class="st15" d="M430.5,80.4v406.2c0,2.9-2.4,5.3-5.3,5.3H141.7c-2.9,0-5.3-2.4-5.3-5.3V80.4c0-2.9,2.4-5.3,5.3-5.3h283.5
		C428.1,75.1,430.5,77.5,430.5,80.4L430.5,80.4z M430.5,80.4"/>
	<path class="st16" d="M430.5,80.4v406.2c0,2.9-2.4,5.3-5.3,5.3H167.1c-2.9,0-5.3-2.4-5.3-5.3V80.4c0-2.9,2.4-5.3,5.3-5.3h258.1
		C428.1,75.1,430.5,77.5,430.5,80.4L430.5,80.4z M430.5,80.4"/>
	<path class="st15" d="M209.1,378.5h148.7c3.5,0,6.3-2.8,6.3-6.3c0-3.5-2.8-6.3-6.3-6.3H209.1c-3.5,0-6.3,2.8-6.3,6.3
		C202.8,375.6,205.6,378.5,209.1,378.5L209.1,378.5z M209.1,378.5"/>
	<path class="st15" d="M175.7,413.9h215.4c3.5,0,6.3-2.8,6.3-6.3c0-3.5-2.8-6.3-6.3-6.3H175.7c-3.5,0-6.3,2.8-6.3,6.3
		C169.4,411.1,172.2,413.9,175.7,413.9L175.7,413.9z M175.7,413.9"/>
	<path class="st15" d="M391.2,436.7H175.7c-3.5,0-6.3,2.8-6.3,6.3c0,3.5,2.8,6.3,6.3,6.3h215.4c3.5,0,6.3-2.8,6.3-6.3
		C397.5,439.5,394.7,436.7,391.2,436.7L391.2,436.7z M391.2,436.7"/>
	<path class="st17" d="M395.5,216.2c0,61.9-50.2,112.1-112.1,112.1s-112.1-50.2-112.1-112.1c0-61.9,50.2-112.1,112.1-112.1
		S395.5,154.3,395.5,216.2L395.5,216.2z M395.5,216.2"/>
	<path class="st11" d="M368.6,173.5c3.8,0,6.9,3.1,6.9,6.9l0,23.6c0,2.8-1.4,5.4-3.6,7.1c-3.5,2.5-5.6,6.6-5.6,10.9
		c0,4.3,2.1,8.4,5.6,10.9c2.3,1.7,3.6,4.3,3.6,7.1l0,23.6c0,3.8-3.1,6.9-6.9,6.9l-172.8,0c-3.8,0-6.9-3.1-6.9-6.9l0-23.6
		c0-2.8,1.4-5.4,3.6-7.1c3.5-2.5,5.6-6.6,5.6-10.9c0-4.3-2.1-8.4-5.6-10.9c-2.3-1.7-3.6-4.3-3.6-7.1l0-23.6c0-3.8,3.1-6.9,6.9-6.9
		L368.6,173.5L368.6,173.5z"/>
</g>
</svg>
