<?xml version="1.0" encoding="utf-8"?>
<!-- Generator: Adobe Illustrator 22.0.1, SVG Export Plug-In . SVG Version: 6.00 Build 0)  -->
<svg version="1.1" id="Livello_1" xmlns="http://www.w3.org/2000/svg" xmlns:xlink="http://www.w3.org/1999/xlink" x="0px" y="0px"
	 viewBox="0 0 566.9 566.9" style="enable-background:new 0 0 566.9 566.9;" xml:space="preserve">
<style type="text/css">
	.st0{fill:#EA4E59;}
</style>
<g id="Settings">
	<g>
		<path class="st0" d="M550.8,254.3c-0.9-7.6-9.7-13.3-17.3-13.3c-24.7,0-46.6-14.5-55.8-36.9c-9.4-22.9-3.3-49.7,15.1-66.6
			c5.8-5.3,6.5-14.1,1.6-20.3c-12.6-16-27-30.5-42.7-43.1c-6.1-4.9-15.1-4.2-20.5,1.7c-16,17.8-44.9,24.4-67.2,15.1
			c-23.2-9.8-37.8-33.2-36.4-58.5c0.5-7.9-5.3-14.8-13.2-15.7c-20.1-2.3-40.4-2.4-60.6-0.2c-7.8,0.9-13.6,7.6-13.3,15.4
			c0.9,25-13.9,48-36.9,57.4c-22,9-50.6,2.4-66.6-15.2c-5.3-5.8-14.2-6.5-20.3-1.7C100.7,85.2,86,99.7,73.3,115.6
			c-5,6.2-4.2,15.1,1.6,20.5c18.7,17,24.8,44,15.1,67.2c-9.3,22.1-32.3,36.4-58.6,36.4c-8.5-0.3-14.6,5.5-15.6,13.2
			c-2.4,20.2-2.4,40.8-0.1,61.2c0.8,7.6,9.9,13.2,17.7,13.2c23.4-0.6,46,13.9,55.4,36.9c9.4,22.9,3.4,49.7-15.1,66.6
			c-5.8,5.3-6.5,14.1-1.6,20.3c12.5,15.9,26.9,30.4,42.6,43.1c6.2,5,15.1,4.3,20.5-1.6c16.1-17.8,44.9-24.4,67.1-15.1
			c23.2,9.7,37.9,33.2,36.4,58.4c-0.5,7.9,5.3,14.8,13.2,15.7c10.3,1.2,20.6,1.8,31,1.8c9.9,0,19.7-0.5,29.6-1.6
			c7.8-0.9,13.6-7.6,13.3-15.4c-0.9-25,13.9-48,36.8-57.4c22.2-9,50.7-2.4,66.7,15.2c5.3,5.8,14.1,6.5,20.3,1.7
			c16.1-12.6,30.8-27.1,43.6-43.1c5-6.2,4.3-15.1-1.6-20.5c-18.7-17-24.8-44-15.1-67.2c9.2-21.8,31.3-36.5,55.1-36.5l3.3,0.1
			c7.7,0.6,14.8-5.3,15.8-13.2C553.1,295.2,553.1,274.7,550.8,254.3z M283.7,374.5c-49.5,0-89.8-40.3-89.8-89.8
			c0-49.5,40.3-89.8,89.8-89.8c49.5,0,89.8,40.3,89.8,89.8C373.5,334.3,333.2,374.5,283.7,374.5z"/>
	</g>
</g>
</svg>
