<?xml version="1.0" encoding="utf-8"?>
<!-- Generator: Adobe Illustrator 22.0.1, SVG Export Plug-In . SVG Version: 6.00 Build 0)  -->
<svg version="1.1" id="Livello_1" xmlns="http://www.w3.org/2000/svg" xmlns:xlink="http://www.w3.org/1999/xlink" x="0px" y="0px"
	 viewBox="0 0 566.9 566.9" style="enable-background:new 0 0 566.9 566.9;" xml:space="preserve">
<style type="text/css">
	.st0{fill:#EA4E59;}
</style>
<path class="st0" d="M511.9,424.3l-87.4-43.7c-8.2-4.1-13.4-12.4-13.4-21.6v-30.9c2.1-2.6,4.3-5.5,6.6-8.7
	c11.3-16,20.4-33.8,27-53.1c12.9-5.9,21.3-18.7,21.3-33.1v-36.6c0-8.8-3.3-17.3-9.1-24v-48.7c0.5-5,2.5-35-19.1-59.7
	c-18.8-21.4-49.3-32.3-90.7-32.3s-71.9,10.9-90.7,32.3c-13.1,15-17.5,31.9-18.9,44c-15.7-8.1-34.2-12.2-55.2-12.2
	c-95.1,0-100.6,81-100.6,82.3v41.9c-5.9,6.5-9.1,13.9-9.1,21.3v31.6c0,9.9,4.4,19.1,12,25.3c7.5,28.5,26.1,50,33.3,57.5V381
	c0,7.2-3.9,13.8-10.7,17.5l-60.9,38.2C23,449.4,8.5,473.8,8.5,500.4v34.7h128.1h18.3h402.6v-37C557.5,466.7,540,438.4,511.9,424.3z
	 M539.2,516.8H154.9v-20.5c0-23.5,12.8-45.1,33.5-56.4l81.6-44.5c13.7-7.5,22.1-21.8,22.1-37.3v-36.8v0l-1.8-2.1l-0.3-0.4
	c0,0-0.6-0.7-1.5-1.9c-0.1-0.1-0.1-0.1-0.2-0.2c-0.5-0.6-1.1-1.4-1.7-2.3c0,0,0,0,0,0c-1.4-1.9-3.1-4.4-5-7.3c0-0.1-0.1-0.1-0.1-0.2
	c-0.9-1.4-1.8-2.9-2.8-4.5c-0.1-0.1-0.1-0.2-0.2-0.4c-2.1-3.5-4.3-7.4-6.5-11.7c0,0,0,0,0,0c-1.2-2.3-2.3-4.8-3.5-7.3l0,0
	c-0.2-0.4-0.3-0.7-0.5-1.1l0,0c-0.5-1.1-1-2.3-1.5-3.6c-0.2-0.4-0.4-0.9-0.5-1.4c-0.5-1.2-1-2.4-1.5-3.8c-0.9-2.5-1.8-5.1-2.7-7.8
	l-0.5-1.6c-0.1-0.2-0.1-0.4-0.2-0.6c-0.9-2.9-1.7-5.8-2.4-8.9l-0.8-3.6l-3.1-2c-5.3-3.4-8.5-9.2-8.5-15.3v-36.6
	c0-5.1,2.2-9.9,6.1-13.5l3-2.7v-57v-3.2l-0.2-0.2c-0.3-6.6,0.1-26.9,14.9-43.7c15.2-17.3,41-26.1,76.9-26.1
	c35.7,0,61.6,8.7,76.7,25.9c17.8,20.1,14.9,45.9,14.9,46.1l-0.1,58.2l3,2.7c4,3.6,6.1,8.4,6.1,13.5v36.6c0,8-5.2,15-13,17.4
	l-4.6,1.4l-1.5,4.5c-6.1,19-14.8,36.6-25.9,52.3c-2.7,3.9-5.4,7.3-7.7,9.9l-2.3,2.6V359c0,16.2,9,30.8,23.5,38l87.4,43.7
	c21.9,11,35.5,33,35.5,57.5V516.8z"/>
</svg>
