<?xml version="1.0" encoding="utf-8"?>
<!-- Generator: Adobe Illustrator 22.0.1, SVG Export Plug-In . SVG Version: 6.00 Build 0)  -->
<svg version="1.1" id="Livello_1" xmlns="http://www.w3.org/2000/svg" xmlns:xlink="http://www.w3.org/1999/xlink" x="0px" y="0px"
	 viewBox="0 0 566.9 566.9" style="enable-background:new 0 0 566.9 566.9;" xml:space="preserve">
<style type="text/css">
	.st0{fill:#EA4E59;}
</style>
<g>
	<g>
		<g>
			<path class="st0" d="M544.6,253c-1.1-2.7-2.7-5.1-4.8-7.2L474,179.9c-8.6-8.6-22.5-8.6-31.1,0c-8.6,8.6-8.6,22.5,0,31.1
				l28.4,28.4H348.7c-12.1,0-22,9.8-22,22s9.8,22,22,22h122.7l-28.4,28.4c-8.6,8.6-8.6,22.5,0,31.1c4.3,4.3,9.9,6.4,15.5,6.4
				c5.6,0,11.2-2.1,15.5-6.4l65.9-65.9c2-2,3.6-4.5,4.8-7.2C546.8,264.4,546.8,258.3,544.6,253z"/>
			<path class="st0" d="M392.6,327.2c-12.1,0-22,9.8-22,22V459h-87.8V107.6c0-9.7-6.4-18.2-15.7-21l-76.3-22.9h179.8v109.8
				c0,12.1,9.8,22,22,22c12.1,0,22-9.8,22-22V41.8c0-12.1-9.8-22-22-22H41.2c-0.8,0-1.5,0.3-2.3,0.4c-1,0.1-2,0.3-3,0.5
				c-2.3,0.6-4.4,1.5-6.3,2.7c-0.5,0.3-1.1,0.3-1.5,0.7c-0.2,0.1-0.2,0.4-0.4,0.5c-2.4,1.9-4.4,4.2-5.8,6.9
				c-0.3,0.6-0.4,1.2-0.6,1.8c-0.7,1.7-1.5,3.3-1.7,5.1c-0.1,0.7,0.1,1.3,0.1,1.9c0,0.4-0.3,0.8-0.3,1.3V481
				c0,10.5,7.4,19.5,17.7,21.5l219.6,43.9c1.4,0.3,2.9,0.4,4.3,0.4c5,0,10-1.7,13.9-5c5.1-4.2,8-10.4,8-17v-22h109.8
				c12.1,0,22-9.8,22-22V349.2C414.6,337.1,404.7,327.2,392.6,327.2z"/>
		</g>
	</g>
</g>
</svg>
