<?xml version="1.0" encoding="utf-8"?>
<!-- Generator: Adobe Illustrator 22.0.1, SVG Export Plug-In . SVG Version: 6.00 Build 0)  -->
<svg version="1.1" id="Livello_1" xmlns="http://www.w3.org/2000/svg" xmlns:xlink="http://www.w3.org/1999/xlink" x="0px" y="0px"
	 viewBox="0 0 566.9 566.9" style="enable-background:new 0 0 566.9 566.9;" xml:space="preserve">
<style type="text/css">
	.st0{display:none;}
	.st1{display:inline;fill:#F8A914;stroke:#F8A914;stroke-width:2.3107;stroke-miterlimit:10;}
	.st2{display:inline;fill:#F0EDE0;}
	.st3{display:inline;fill:#D5C3A5;}
	.st4{display:inline;fill:#F9EF81;}
	.st5{display:inline;}
	.st6{fill:#D43646;}
	.st7{display:inline;fill:url(#SVGID_1_);}
	.st8{display:inline;fill:#F8A914;stroke:#F8A914;stroke-width:1.8725;stroke-miterlimit:10;}
	.st9{display:inline;fill:url(#SVGID_2_);}
	.st10{fill:#EDE7EA;}
	.st11{fill:#F8A914;stroke:#F8A914;stroke-width:2.4647;stroke-miterlimit:10;}
	.st12{fill:#D7CFD1;}
	.st13{fill:#8B7E80;}
</style>
<g class="st0">
	<path class="st1" d="M533.7,9.2H33.2C17.4,9.2,4.4,22.1,4.4,38c0,15.9,13,28.9,28.8,28.9V38h500.5v28.9c15.9,0,28.8-13,28.8-28.9
		C562.5,22.1,549.6,9.2,533.7,9.2L533.7,9.2z M533.7,9.2"/>
	<path class="st2" d="M52.5,500l57.8,57.8L168,500l57.7,57.8l57.8-57.8l57.8,57.8L399,500l57.8,57.8l57.7-57.8l19.3,19.2V38H33.2
		v481.2L52.5,500z M52.5,500"/>
	<path class="st3" d="M418.2,403.8H273.8c-5.3,0-9.6-4.3-9.6-9.6c0-5.3,4.3-9.6,9.6-9.6h144.4c5.3,0,9.6,4.3,9.6,9.6
		C427.8,399.4,423.5,403.8,418.2,403.8L418.2,403.8z M418.2,403.8"/>
	<path class="st3" d="M466.3,403.8c-2.5,0-5-1.1-6.8-2.8c-1.7-1.8-2.8-4.3-2.8-6.8c0-2.6,1-5,2.8-6.8c3.7-3.6,10-3.6,13.7,0
		c1.7,1.8,2.8,4.2,2.8,6.8c0,2.5-1,5-2.8,6.8C471.3,402.7,468.8,403.8,466.3,403.8L466.3,403.8z M466.3,403.8"/>
	<path class="st3" d="M466.3,269H321.9c-5.3,0-9.6-4.3-9.6-9.6c0-5.3,4.3-9.6,9.6-9.6h144.4c5.3,0,9.6,4.3,9.6,9.6
		C475.9,264.7,471.6,269,466.3,269L466.3,269z M466.3,269"/>
	<path class="st3" d="M466.3,336.4h-96.2c-5.3,0-9.6-4.3-9.6-9.6c0-5.3,4.3-9.6,9.6-9.6h96.2c5.3,0,9.6,4.3,9.6,9.6
		C475.9,332.1,471.6,336.4,466.3,336.4L466.3,336.4z M466.3,336.4"/>
	<path class="st3" d="M293.1,336.4h-19.3c-5.3,0-9.6-4.3-9.6-9.6c0-5.3,4.3-9.6,9.6-9.6h19.3c5.3,0,9.6,4.3,9.6,9.6
		C302.7,332.1,298.4,336.4,293.1,336.4L293.1,336.4z M293.1,336.4"/>
	<path class="st3" d="M418.2,201.6H273.8c-5.3,0-9.6-4.3-9.6-9.6c0-5.3,4.3-9.6,9.6-9.6h144.4c5.3,0,9.6,4.3,9.6,9.6
		C427.8,197.3,423.5,201.6,418.2,201.6L418.2,201.6z M418.2,201.6"/>
	<path class="st3" d="M466.3,201.6c-2.5,0-5-1.1-6.8-2.8c-1.7-1.8-2.8-4.4-2.8-6.9c0-2.6,1-5,2.8-6.8c3.6-3.6,10.1-3.6,13.7,0
		c1.7,1.8,2.8,4.3,2.8,6.8c0,2.5-1,5-2.8,6.9C471.3,200.6,468.9,201.6,466.3,201.6L466.3,201.6z M466.3,201.6"/>
	<path class="st3" d="M283.5,269c-2.5,0-5-1.1-6.8-2.8c-1.7-1.8-2.8-4.2-2.8-6.8c0-2.6,1.1-5,2.8-6.9c3.7-3.5,10.1-3.5,13.7,0
		c1.7,1.8,2.8,4.2,2.8,6.9c0,2.6-1.1,5-2.8,6.8C288.5,268,286,269,283.5,269L283.5,269z M283.5,269"/>
	<path class="st3" d="M331.6,336.4c-2.5,0-5-1-6.8-2.8c-1.7-1.8-2.8-4.3-2.8-6.9c0-2.5,1.1-5,2.8-6.8c3.7-3.6,10.1-3.6,13.7,0
		c1.7,1.7,2.8,4.2,2.8,6.8c0,2.6-1.1,5-2.8,6.9C336.6,335.3,334.1,336.4,331.6,336.4L331.6,336.4z M331.6,336.4"/>
	<path class="st4" d="M62.1,115c-2.5,0-5-1.1-6.9-2.8c-1.7-1.8-2.8-4.3-2.8-6.8c0-2.5,1.1-5,2.8-6.8c3.7-3.6,10.1-3.6,13.7,0
		c1.7,1.8,2.8,4.3,2.8,6.8c0,2.5-1.1,5-2.8,6.8C67.1,114,64.6,115,62.1,115L62.1,115z M62.1,115"/>
	<path class="st4" d="M458.3,105.4c0-5.3,4.3-9.6,9.6-9.6c5.3,0,9.6,4.3,9.6,9.6c0,5.3-4.3,9.6-9.6,9.6
		C462.6,115,458.3,110.7,458.3,105.4L458.3,105.4z M421.4,105.4c0-5.3,4.3-9.6,9.6-9.6c5.4,0,9.6,4.3,9.6,9.6c0,5.3-4.3,9.6-9.6,9.6
		C425.7,115,421.4,110.7,421.4,105.4L421.4,105.4z M384.6,105.4c0-5.3,4.3-9.6,9.6-9.6c5.3,0,9.6,4.3,9.6,9.6c0,5.3-4.3,9.6-9.6,9.6
		C388.9,115,384.6,110.7,384.6,105.4L384.6,105.4z M347.7,105.4c0-5.3,4.2-9.6,9.6-9.6c5.3,0,9.6,4.3,9.6,9.6c0,5.3-4.3,9.6-9.6,9.6
		C351.9,115,347.7,110.7,347.7,105.4L347.7,105.4z M310.7,105.4c0-5.3,4.3-9.6,9.6-9.6c5.4,0,9.6,4.3,9.6,9.6c0,5.3-4.2,9.6-9.6,9.6
		C315,115,310.7,110.7,310.7,105.4L310.7,105.4z M273.8,105.4c0-5.3,4.4-9.6,9.6-9.6c5.3,0,9.6,4.3,9.6,9.6c0,5.3-4.3,9.6-9.6,9.6
		C278.2,115,273.8,110.7,273.8,105.4L273.8,105.4z M237,105.4c0-5.3,4.2-9.6,9.6-9.6c5.3,0,9.6,4.3,9.6,9.6c0,5.3-4.4,9.6-9.6,9.6
		C241.2,115,237,110.7,237,105.4L237,105.4z M200.1,105.4c0-5.3,4.3-9.6,9.6-9.6c5.4,0,9.6,4.3,9.6,9.6c0,5.3-4.2,9.6-9.6,9.6
		C204.4,115,200.1,110.7,200.1,105.4L200.1,105.4z M163.2,105.4c0-5.3,4.3-9.6,9.6-9.6c5.3,0,9.6,4.3,9.6,9.6c0,5.3-4.3,9.6-9.6,9.6
		C167.5,115,163.2,110.7,163.2,105.4L163.2,105.4z M126.3,105.4c0-5.3,4.2-9.6,9.6-9.6c5.3,0,9.6,4.3,9.6,9.6c0,5.3-4.3,9.6-9.6,9.6
		C130.6,115,126.3,110.7,126.3,105.4L126.3,105.4z M89.3,105.4c0-5.3,4.4-9.6,9.6-9.6c5.4,0,9.6,4.3,9.6,9.6c0,5.3-4.2,9.6-9.6,9.6
		C93.7,115,89.3,110.7,89.3,105.4L89.3,105.4z M89.3,105.4"/>
	<path class="st4" d="M504.9,115c-2.6,0-5-1.1-6.9-2.9c-1.7-1.7-2.8-4.2-2.8-6.7c0-2.5,1-5,2.8-6.8c3.5-3.6,10-3.6,13.7,0
		c1.7,1.8,2.8,4.3,2.8,6.8c0,2.5-1,5-2.8,6.8C509.8,114,507.3,115,504.9,115L504.9,115z M504.9,115"/>
	<g class="st5">
		<path class="st6" d="M230.9,314.9c0,2.8-1,11-3.1,24.7c-0.4,1.5-1.2,2.2-2.5,2.1h-2.1c-21.5-0.8-43.6-1.4-66.3-1.6
			c10.4,18.7,27,28,49.6,28c3.7,0,8.2-0.6,13.4-1.8c5.2-1.2,7.9-1.8,8-1.8c1.6,0,2.5,1.6,2.5,4.7v53.9c0,7.3-8.9,10.9-26.6,10.9
			c-31.3,0-57.7-8.5-79.3-25.5c-20.7-16.5-34.5-38.9-41.4-67.3c-8.6,0.3-16.3,0.4-22.8,0.4c-2.5,0-3.7-1.7-3.7-5.2
			c0-1.1,0.3-2.4,1-4c0.7-1.6,1-3,1-4.2c0-9.1,0.1-13.9,0.4-14.6c0.8-1.8,2.4-2.7,4.7-2.7c4.7,0,9.7,0.1,15.2,0.2
			c-0.1-2.7-0.2-5.6-0.2-8.4c0-1.8,0-3.6,0-5.4c-6.9,0.1-13,0.2-18.5,0.2c-2.5,0-3.7-1.9-3.7-5.8c0,1.2,0.5-3.1,1.6-13.2
			c0.1-3.3,0.4-7,0.8-11.1c0.8-1.8,2.4-2.7,4.7-2.7c5.8,0,12.3,0.1,19.6,0.2c7.3-27.9,21.6-50,43-66.5
			c22.1-16.7,48.5-25.1,79.3-25.1c16.7,0,25.1,2.4,25.1,7.2c0,6.5-0.2,16.2-0.5,29.3c-0.3,13.1-0.5,22.9-0.5,29.3
			c0,2.2-1.7,3.3-5.1,3.3c-1.6,0-4.7-0.5-9.2-1.6c-4.5-1.1-7.9-1.6-10.4-1.6c-22.1,0-38.2,9.1-48.4,27.2c5.5-0.1,17.2-0.3,35.2-0.6
			c14.5-0.3,26.2-0.4,35-0.4c2.3,0,3.5,1.1,3.5,3.3c0,8.9-0.9,17.9-2.7,26.8c-0.3,1.8-1.2,2.7-2.9,2.7c-0.1,0-0.7-0.1-1.6-0.2
			c-10.8-1.5-35.8-2.1-74.9-1.9c-0.1,2.2-0.2,4.4-0.2,6.6c0,3.4,0.2,6.7,0.6,9.9c8.1,0,21.2-0.2,39.3-0.6c17-0.3,30.1-0.4,39.3-0.4
			C229.8,311.7,230.9,312.8,230.9,314.9z"/>
	</g>
</g>
<g class="st0">
	
		<linearGradient id="SVGID_1_" gradientUnits="userSpaceOnUse" x1="7.5585" y1="604.025" x2="7.5585" y2="305.2962" gradientTransform="matrix(-0.7393 0.6792 -0.6792 -0.7393 740.5192 697.5926)">
		<stop  offset="0" style="stop-color:#EA4E58"/>
		<stop  offset="1" style="stop-color:#BE4146"/>
	</linearGradient>
	<path class="st7" d="M425.2,112.8c5.5-5.1,14.1-4.7,19.2,0.8L476,148c3.7,4,5.3,9.7,4.2,15.2c-1.7,8.4,0.7,17.1,6.5,23.3
		c5.8,6.3,14.2,9.4,22.7,8.5c5.5-0.6,11.1,1.4,14.8,5.4l31.6,34.4c5.1,5.5,4.7,14.1-0.8,19.2L303.1,485.5
		c-5.5,5.1-14.1,4.7-19.2-0.8l-31.6-34.4c-3.7-4-5.3-9.7-4.2-15.2c1.7-8.4-0.7-17.1-6.5-23.3c-5.8-6.3-14.2-9.4-22.7-8.5
		c-5.5,0.6-11.1-1.4-14.8-5.4l-31.6-34.4c-5.1-5.5-4.7-14.1,0.8-19.2L425.2,112.8L425.2,112.8z"/>
	<path class="st8" d="M206.3,77c0.8-7.4,7.5-12.8,15-12l46.5,5.1c5.5,0.6,10.4,3.8,13.1,8.7c4.2,7.4,11.8,12.4,20.3,13.3
		c8.5,0.9,16.9-2.3,22.7-8.6c3.7-4.1,9.2-6.2,14.7-5.6L385,83c7.4,0.8,12.8,7.5,12,15l-37.3,340c-0.8,7.4-7.5,12.8-15,12l-46.5-5.1
		c-5.5-0.6-10.4-3.8-13.1-8.7c-4.2-7.4-11.8-12.4-20.3-13.3c-8.5-0.9-16.9,2.3-22.7,8.6c-3.7,4.1-9.2,6.2-14.7,5.6L181,432
		c-7.4-0.8-12.8-7.5-12-15L206.3,77L206.3,77z"/>
	
		<linearGradient id="SVGID_2_" gradientUnits="userSpaceOnUse" x1="158.5194" y1="700.2148" x2="158.5194" y2="401.486" gradientTransform="matrix(0.5005 0.8703 -0.8703 0.5005 657.22 -160.1696)">
		<stop  offset="0" style="stop-color:#EA4E58"/>
		<stop  offset="1" style="stop-color:#BE4146"/>
	</linearGradient>
	<path class="st9" d="M9.4,198.7c-3.7-6.5-1.5-14.8,5-18.6l40.5-23.3c4.8-2.7,10.6-3,15.7-0.7c7.8,3.5,16.8,3,24.2-1.2
		c7.4-4.2,12.3-11.8,13.2-20.3c0.6-5.5,3.8-10.5,8.5-13.2l40.5-23.3c6.5-3.7,14.8-1.5,18.6,5l170.5,296.5c3.7,6.5,1.5,14.8-5,18.6
		l-40.5,23.3c-4.8,2.7-10.6,3-15.7,0.7c-7.8-3.5-16.8-3-24.2,1.2c-7.4,4.2-12.3,11.8-13.2,20.3c-0.6,5.5-3.8,10.5-8.5,13.2
		l-40.5,23.3c-6.5,3.7-14.8,1.5-18.6-5L9.4,198.7L9.4,198.7z"/>
</g>
<g>
	<polygon class="st10" points="560.6,86.4 560.6,542.1 6.4,542.1 6.4,86.4 283.5,61.8 	"/>
	<polygon class="st6" points="560.6,24.8 560.6,86.4 499,86.4 462,55.6 499,24.8 	"/>
	<rect x="6.4" y="24.8" class="st11" width="492.6" height="61.6"/>
	<path class="st12" d="M486.7,286.5H80.3c-5.1,0-9.2-4.1-9.2-9.2s4.1-9.2,9.2-9.2h406.4c5.1,0,9.2,4.1,9.2,9.2
		S491.8,286.5,486.7,286.5z"/>
	<g>
		<path class="st13" d="M258.8,335.8H80.3c-5.1,0-9.2-4.1-9.2-9.2s4.1-9.2,9.2-9.2h178.6c5.1,0,9.2,4.1,9.2,9.2
			S263.9,335.8,258.8,335.8z"/>
		<path class="st13" d="M258.8,385.1H80.3c-5.1,0-9.2-4.1-9.2-9.2s4.1-9.2,9.2-9.2h178.6c5.1,0,9.2,4.1,9.2,9.2
			S263.9,385.1,258.8,385.1z"/>
		<path class="st13" d="M258.8,434.3H80.3c-5.1,0-9.2-4.1-9.2-9.2s4.1-9.2,9.2-9.2h178.6c5.1,0,9.2,4.1,9.2,9.2
			S263.9,434.3,258.8,434.3z"/>
	</g>
	<rect x="308.1" y="326.6" class="st6" width="178.6" height="147.8"/>
	<g>
		<path class="st13" d="M258.8,483.6H80.3c-5.1,0-9.2-4.1-9.2-9.2s4.1-9.2,9.2-9.2h178.6c5.1,0,9.2,4.1,9.2,9.2
			S263.9,483.6,258.8,483.6z"/>
		<path class="st13" d="M434,237.3c-16.6,0-29.6-7.3-33.8-19c-1.7-4.8,0.7-10.1,5.5-11.8c4.8-1.7,10.1,0.7,11.8,5.5
			c1.5,4.1,8.1,6.8,16.5,6.8c6.3,0,16.9-1.9,16.9-9.2c0-5-2.3-6.7-18.4-9.4c-7.1-1.2-14.5-2.4-20.7-5.6
			c-8.6-4.5-13.1-12.1-13.1-21.9c0-16.3,14.5-27.7,35.3-27.7c16.6,0,29.6,7.3,33.8,19c1.7,4.8-0.7,10.1-5.5,11.8
			c-4.8,1.7-10.1-0.7-11.8-5.5c-1.5-4.1-8.1-6.8-16.5-6.8c-6.3,0-16.9,1.9-16.9,9.2c0,5,2.3,6.7,18.3,9.3c7.1,1.2,14.5,2.4,20.8,5.7
			c8.6,4.5,13.1,12.1,13.1,21.9C469.3,225.9,454.8,237.3,434,237.3z"/>
		<path class="st13" d="M352.2,237.3c-3.4,0-6.6-1.9-8.2-5.1l-10.5-20.7L323,232.2c-1.7,3.4-5.4,5.4-9.3,5c-3.8-0.4-7-3.2-7.9-6.9
			l-18.7-73.9c-1.3-4.9,1.7-10,6.7-11.2c4.9-1.3,10,1.7,11.2,6.7l12.7,50l7.6-15c1.6-3.1,4.8-5.1,8.2-5.1c3.5,0,6.7,2,8.2,5.1
			l7.6,15l12.7-50c1.3-4.9,6.3-7.9,11.2-6.7c4.9,1.3,7.9,6.3,6.7,11.2l-18.7,73.9c-0.9,3.7-4.1,6.5-7.9,6.9
			C352.9,237.3,352.5,237.3,352.2,237.3z"/>
		<path class="st13" d="M259.1,237.3h-52.2c-5.1,0-9.2-4.1-9.2-9.2v-73.9c0-5.1,4.1-9.2,9.2-9.2h52.2c5.1,0,9.2,4.1,9.2,9.2
			s-4.1,9.2-9.2,9.2h-43v55.4h43c5.1,0,9.2,4.1,9.2,9.2S264.2,237.3,259.1,237.3z"/>
		<path class="st13" d="M241.7,200.3h-34.8c-5.1,0-9.2-4.1-9.2-9.2s4.1-9.2,9.2-9.2h34.8c5.1,0,9.2,4.1,9.2,9.2
			S246.8,200.3,241.7,200.3z"/>
		<path class="st13" d="M169.9,237.3c-2.7,0-5.2-1.1-7-3.2l-46.8-54.8V228c0,5.1-4.1,9.2-9.2,9.2c-5.1,0-9.2-4.1-9.2-9.2v-73.9
			c0-3.9,2.4-7.3,6-8.7c3.6-1.3,7.7-0.3,10.2,2.7l46.8,54.8v-48.8c0-5.1,4.1-9.2,9.2-9.2c5.1,0,9.2,4.1,9.2,9.2V228
			c0,3.9-2.4,7.3-6,8.7C172.1,237.1,171,237.3,169.9,237.3z"/>
	</g>
</g>
</svg>
